<?xml version="1.0" encoding="utf-8"?>
<!-- Generator: Adobe Illustrator 24.0.2, SVG Export Plug-In . SVG Version: 6.00 Build 0)  -->
<svg version="1.1" id="Capa_1" xmlns="http://www.w3.org/2000/svg" xmlns:xlink="http://www.w3.org/1999/xlink" x="0px" y="0px"
	 viewBox="0 0 50 50" style="enable-background:new 0 0 50 50;" xml:space="preserve">
<style type="text/css">
	.st0{opacity:0.65;fill:#FFFFFF;}
	.st1{opacity:0.65;fill:none;stroke:#E5E3E7;stroke-miterlimit:10;}
</style>
<path class="st0" d="M47.77,42.7c-0.72,0-1.38-0.13-1.96-0.39c-0.58-0.26-1.13-0.64-1.66-1.14c-0.21-0.21-0.66-0.76-1.33-1.67
	l-8.35-10.88c2.58-0.03,4.66-0.44,6.22-1.22c1.56-0.78,2.76-1.85,3.59-3.21c0.83-1.36,1.25-2.92,1.25-4.68
	c0-1.71-0.43-3.21-1.28-4.51c-0.85-1.3-2.07-2.29-3.65-2.97c-1.58-0.68-3.92-1.03-7.01-1.03c-0.19-0.01-0.38-0.01-0.58-0.02
	l0.14-0.36c0.43-1.08,0.83-1.84,1.18-2.3c0.28-0.34,0.65-0.6,1.09-0.78c0.44-0.18,1.13-0.27,2.06-0.25v-2.1H26.64v2.1h1.15
	c1.03,0,1.72,0.11,2.05,0.33c0.33,0.22,0.5,0.57,0.5,1.06c0,0.44-0.17,1.08-0.5,1.94l-0.11,0.25c-3.93-0.14-8.03-0.3-9.66-0.25h-1.8
	v2h2.55c0.19,0.04,0.36,0.15,0.41,0.36c0,0.01-0.01,0.02-0.01,0.04c-0.03,0.08-0.06,0.16-0.07,0.23L16.12,25.3L11.2,10.64
	c-0.33-0.86-0.5-1.51-0.5-1.97c0-0.29,0.09-0.54,0.26-0.77c0.18-0.23,0.43-0.39,0.76-0.49c0.23-0.07,0.8-0.1,1.7-0.1h0.98v-2.1H1.67
	v2.23c0.72,0,1.28-0.07,1.68,0.04c0.4,0.11,0.75,0.27,1.04,0.49c0.29,0.22,0.55,0.5,0.79,0.86c0.15,0.24,0.42,0.84,0.8,1.82
	l7.75,20.43L9.23,41.81c-0.2,0.48-0.37,0.88-0.89,0.84l-1.1,0.04v-0.02H6.92v2.12h0.32v-0.01l7.67-0.01v0.01h0.32v-2.12h-0.32v0
	c-0.43,0-1.45-0.02-1.53-0.15c-0.28-0.43,0.03-0.93,0.03-0.93c0,0,0,0,0,0l2.31-5.22l2.01,5.3l2.9,0.13l11.32-28.14h1.75
	c1.81,0,3.17,0.23,4.09,0.69c0.91,0.46,1.63,1.15,2.16,2.08c0.53,0.93,0.79,2.07,0.79,3.42c0,1.6-0.37,2.91-1.1,3.94
	c-0.73,1.03-1.73,1.74-3,2.13c-0.89,0.29-2.44,0.44-4.64,0.44h-2.24c0,0,0,0,0,0l0.01,0.36c0.03,0.63-0.03,1.26-0.03,1.9
	c0,0.04-0.01,0.07-0.02,0.11l11.44,16.03h7.19V42.7H47.77z M19.32,34.81l-1.26-3.76l7.44-17.41h3.04L19.32,34.81z"/>
<line class="st1" x1="101.42" y1="-0.77" x2="101.42" y2="30.23"/>
<g>
</g>
<g>
</g>
<g>
</g>
<g>
</g>
<g>
</g>
<g>
</g>
<g>
</g>
<g>
</g>
<g>
</g>
<g>
</g>
<g>
</g>
</svg>
